<?xml version="1.0" standalone="no"?><!DOCTYPE svg PUBLIC "-//W3C//DTD SVG 1.1//EN" "http://www.w3.org/Graphics/SVG/1.1/DTD/svg11.dtd"><svg t="1692183491753" class="icon" viewBox="0 0 1024 1024" version="1.1" xmlns="http://www.w3.org/2000/svg" p-id="4996" width="32" height="32" xmlns:xlink="http://www.w3.org/1999/xlink"><path d="M923.2 144c16-20.8 22.4 12.8 22.4 12.8L704 411.2l30.4 28.8s232-256 248-278.4c14.4-19.2-12.8-49.6-12.8-49.6S889.6 14.4 883.2 14.4c0 0-25.6-30.4-44.8 1.6L283.2 563.2l113.6 128L923.2 144zM148.8 740.8c19.2-19.2 49.6-17.6 68.8 1.6 19.2 19.2 19.2 49.6 0 68.8-14.4 14.4-38.4 19.2-56 11.2l-102.4 102.4 216-83.2 94.4-129.6-110.4-115.2L118.4 672S60.8 835.2 43.2 902.4l94.4-105.6c-8-16-1.6-41.6 11.2-56z m526.4 220.8c-144 0-248-41.6-376-41.6-121.6 0-270.4 20.8-270.4 20.8v62.4s150.4-20.8 273.6-20.8c128 0 232 41.6 376 41.6 174.4 0 316.8-41.6 316.8-41.6v-62.4c0-1.6-144 41.6-320 41.6z" fill="#8a8a8a" p-id="4997"></path></svg>