<?xml version="1.0" standalone="no"?><!DOCTYPE svg PUBLIC "-//W3C//DTD SVG 1.1//EN" "http://www.w3.org/Graphics/SVG/1.1/DTD/svg11.dtd"><svg t="1692222147523" class="icon" viewBox="0 0 2925 1024" version="1.1" xmlns="http://www.w3.org/2000/svg" p-id="10017" xmlns:xlink="http://www.w3.org/1999/xlink" width="91.40625" height="32"><path d="M377.4464 56.7296l614.897371 15.389257 274.256458 294.209829L682.861714 929.645714 92.013714 345.234286z" fill="#3D2B00" p-id="10018"></path><path d="M675.254857 756.004571l-289.499428-250.324114L380.342857 292.571429l294.912 463.433142z m-89.234286-358.429257l89.234286 357.376L380.342857 292.571429l205.677714 105.003885z" fill="#FF8A52" p-id="10019"></path><path d="M699.830857 756.004571l289.499429-250.324114L994.742857 292.571429 699.830857 756.004571z m89.234286-358.429257l-89.234286 357.376L994.742857 292.571429l-205.677714 105.003885z" fill="#FF8A52" p-id="10020"></path><path d="M696.32 752.493714L906.971429 424.521143 856.941714 204.8z" fill="#FFCB71" p-id="10021"></path><path d="M696.437029 134.612114l126.390857 216.327315-126.390857 415.626971z" fill="#FFFCB0" p-id="10022"></path><path d="M696.437029 218.872686l42.130285 68.608-42.130285 57.782857z" fill="#FF8BA5" p-id="10023"></path><path d="M1771.1104 471.6544l2.925714 13.750857-42.130285 70.509714 5.207771-38.970514z" fill="#FFB259" p-id="10024"></path><path d="M678.765714 752.493714L468.114286 424.521143 518.144 204.8z" fill="#FFCB71" p-id="10025"></path><path d="M510.127543 309.979429l15.828114-48.976458-15.798857 48.976458z" fill="#FF8741" p-id="10026"></path><path d="M678.648686 134.612114l-126.390857 216.327315 126.390857 415.626971z" fill="#FFFCB0" p-id="10027"></path><path d="M678.648686 218.872686l-42.130286 68.608 42.130286 57.782857z" fill="#FF8BA5" p-id="10028"></path><path d="M2603.125029 88.181029h-1515.812572L1009.839543 8.221257H351.787886L17.437257 354.304l658.051657 665.073371 133.295543-133.061485 1794.194286-0.760686c169.515886 2.165029 308.545829-167.1168 319.546514-369.8688 12.288-222.149486-132.593371-428.500114-319.400228-427.446857zM134.465829 354.304l265.274514-266.093714h557.202286l265.303771 266.0352-541.315657 542.72L134.465829 354.245486z" fill="#FCC12D" p-id="10029"></path><path d="M1493.226057 639.678171L1443.84 345.263543h126.390857l25.658514 214.542628 193.214172-214.542628h122.88l-276.918857 294.356114-141.809372 0.058514z m513.667657 0.497372h-119.456914l109.9776-294.326857h119.222857l-109.743543 294.326857z m250.733715-115.185372l-43.008 115.185372h-122.353372l109.9776-294.326857h259.861943l-50.205257 39.175314h-102.107429l-37.858743 101.346743h137.596343l52.575086-140.756114h124.1088l-66.940343 179.112228-261.646628 0.292572z" fill="#FFFFFF" p-id="10030"></path></svg>