<?xml version="1.0" standalone="no"?><!DOCTYPE svg PUBLIC "-//W3C//DTD SVG 1.1//EN" "http://www.w3.org/Graphics/SVG/1.1/DTD/svg11.dtd"><svg t="1697496889672" class="icon" viewBox="0 0 1024 1024" version="1.1" xmlns="http://www.w3.org/2000/svg" p-id="4210" width="48" height="48" xmlns:xlink="http://www.w3.org/1999/xlink"><path d="M86.82 886.93a359.08 72.62 0 1 0 718.16 0 359.08 72.62 0 1 0-718.16 0Z" fill="#F7F7F7" p-id="4211"></path><path d="M252.24 548.02l-97.05 112.97h194.09zM639.56 548.02l-97.04 112.97H736.6z" fill="#AEB8C2" p-id="4212"></path><path d="M644.49 749.76H247.3c-1.73 0-3.14-1.4-3.14-3.14V252.6c0-1.73 1.4-3.14 3.14-3.14h397.19c1.73 0 3.14 1.4 3.14 3.14v494.02c0 1.73-1.4 3.14-3.14 3.14z" fill="#F5F5F7" p-id="4213"></path><path d="M589.84 459.26H301.96c-0.72 0-1.31-0.59-1.31-1.31V299.19c0-0.72 0.59-1.31 1.31-1.31h287.87c0.72 0 1.31 0.59 1.31 1.31v158.77c0.01 0.72-0.58 1.3-1.3 1.3zM579.04 531.89H312.76c-6.68 0-12.1-5.42-12.1-12.1s5.42-12.1 12.1-12.1h266.29c6.68 0 12.1 5.42 12.1 12.1s-5.42 12.1-12.11 12.1zM579.04 596.44H312.76c-6.68 0-12.1-5.42-12.1-12.1s5.42-12.1 12.1-12.1h266.29c6.68 0 12.1 5.42 12.1 12.1s-5.42 12.1-12.11 12.1zM704.12 886.93H187.68c-17.83 0-32.28-14.45-32.28-32.28V660.99h142.48c11.11 0 20.79 7.56 23.48 18.33l6.21 24.83c3.14 12.57 14.44 21.39 27.4 21.39h176.98c11.41 0 21.7-6.87 26.08-17.4l13.4-32.24a24.204 24.204 0 0 1 22.35-14.92h142.61v193.66c0 17.84-14.45 32.29-32.27 32.29z" fill="#DCE0E6" p-id="4214"></path><path d="M726.57 149.03a106.45 85.16 0 1 0 212.9 0 106.45 85.16 0 1 0-212.9 0Z" fill="#AEB8C2" p-id="4215"></path><path d="M774.24 185.59l-25.26 63.87 63.86-33.24z" fill="#AEB8C2" p-id="4216"></path><path d="M782.02 149.03m-10.64 0a10.64 10.64 0 1 0 21.28 0 10.64 10.64 0 1 0-21.28 0Z" fill="#FFFFFF" p-id="4217"></path><path d="M884.03 149.03m-10.64 0a10.64 10.64 0 1 0 21.28 0 10.64 10.64 0 1 0-21.28 0Z" fill="#FFFFFF" p-id="4218"></path><path d="M833.02 149.03m-10.64 0a10.64 10.64 0 1 0 21.28 0 10.64 10.64 0 1 0-21.28 0Z" fill="#FFFFFF" p-id="4219"></path></svg>